<svg width="29" height="23" viewBox="0 0 29 23" fill="none" xmlns="http://www.w3.org/2000/svg">
<path d="M28.3334 11.457C28.3334 12.0899 27.8631 12.6128 27.253 12.6956L27.0834 12.707L2.08338 12.707C1.39302 12.707 0.833376 12.1474 0.833376 11.457C0.833376 10.8242 1.30363 10.3012 1.91376 10.2184L2.08338 10.207L27.0834 10.207C27.7737 10.207 28.3334 10.7667 28.3334 11.457Z" fill="black"/>
<path d="M13.0484 20.6119C13.5376 21.099 13.5393 21.8905 13.0522 22.3797C12.6093 22.8244 11.915 22.8662 11.4249 22.5042L11.2844 22.3835L1.20107 12.3435C0.755011 11.8993 0.714432 11.2025 1.07936 10.7123L1.201 10.572L11.2843 0.530304C11.7735 0.0431604 12.5649 0.044799 13.0521 0.533964C13.495 0.97866 13.5339 1.67318 13.1698 2.16178L13.0484 2.30173L3.85505 11.4582L13.0484 20.6119Z" fill="black"/>
</svg>
