<svg width="29" height="23" viewBox="0 0 29 23" fill="none" xmlns="http://www.w3.org/2000/svg">
<path d="M28.3333 11.457C28.3333 12.0899 27.863 12.6128 27.2529 12.6956L27.0833 12.707L2.08325 12.707C1.3929 12.707 0.833254 12.1474 0.833254 11.457C0.833254 10.8242 1.30351 10.3012 1.91364 10.2184L2.08325 10.207L27.0833 10.207C27.7736 10.207 28.3333 10.7667 28.3333 11.457Z" fill="black"/>
<path d="M13.0482 20.6119C13.5374 21.099 13.5391 21.8905 13.052 22.3797C12.6092 22.8244 11.9149 22.8662 11.4247 22.5042L11.2843 22.3835L1.20095 12.3435C0.754889 11.8993 0.71431 11.2025 1.07923 10.7123L1.20088 10.572L11.2842 0.530304C11.7734 0.0431604 12.5648 0.044799 13.052 0.533964C13.4948 0.97866 13.5337 1.67318 13.1696 2.16178L13.0483 2.30173L3.85493 11.4582L13.0482 20.6119Z" fill="black"/>
</svg>
