<svg width="26" height="46" viewBox="0 0 26 46" fill="none" xmlns="http://www.w3.org/2000/svg">
<path d="M25.5322 30.4375C25.5322 32.9844 24.626 35.1719 22.8135 37C21.001 38.8125 18.6416 39.9219 15.7354 40.3281V45.7656H10.6025V40.1875C7.74316 39.6562 5.42285 38.3906 3.6416 36.3906C1.87598 34.375 0.993164 31.9609 0.993164 29.1484H6.57129C6.57129 30.9453 7.21191 32.4062 8.49316 33.5312C9.79004 34.6406 11.4541 35.1953 13.4854 35.1953C15.3916 35.1953 16.9463 34.7578 18.1494 33.8828C19.3525 32.9922 19.9541 31.8438 19.9541 30.4375C19.9541 29.6406 19.7432 28.9453 19.3213 28.3516C18.8994 27.7578 18.3291 27.2812 17.6104 26.9219C16.9072 26.5469 16.0869 26.2188 15.1494 25.9375C14.2275 25.6562 13.251 25.3828 12.2197 25.1172C11.2041 24.8516 10.1807 24.5703 9.14941 24.2734C8.13379 23.9766 7.15723 23.5859 6.21973 23.1016C5.29785 22.6172 4.47754 22.0547 3.75879 21.4141C3.05566 20.7734 2.49316 19.9453 2.07129 18.9297C1.64941 17.8984 1.43848 16.7266 1.43848 15.4141C1.43848 12.9922 2.28223 10.9375 3.96973 9.25C5.65723 7.54688 7.86816 6.48438 10.6025 6.0625V0.648438H15.7354V6.15625C18.5479 6.6875 20.7041 7.89844 22.2041 9.78906C23.7197 11.6797 24.4775 13.9062 24.4775 16.4688H18.7119C18.665 14.9375 18.0869 13.6875 16.9775 12.7188C15.8682 11.7344 14.415 11.2422 12.6182 11.2422C10.915 11.2422 9.54004 11.625 8.49316 12.3906C7.46191 13.1406 6.94629 14.1328 6.94629 15.3672C6.94629 16.1172 7.15723 16.7656 7.5791 17.3125C8.00098 17.8438 8.57129 18.2734 9.29004 18.6016C10.0088 18.9297 10.8291 19.2266 11.751 19.4922C12.6885 19.7578 13.665 20.0156 14.6807 20.2656C15.7119 20.5156 16.7432 20.7969 17.7744 21.1094C18.8057 21.4062 19.7822 21.8125 20.7041 22.3281C21.6416 22.8281 22.4697 23.4219 23.1885 24.1094C23.9072 24.7812 24.4775 25.6562 24.8994 26.7344C25.3213 27.8125 25.5322 29.0469 25.5322 30.4375Z" fill="#E52628"/>
</svg>
