<svg width="24" height="24" viewBox="0 0 24 24" fill="none" xmlns="http://www.w3.org/2000/svg">
<path fill-rule="evenodd" clip-rule="evenodd" d="M3 6.47645C3 3.86075 3.02811 2.98913 6.5 2.98913C9.97189 2.98913 10 3.86075 10 6.47645C10 9.09215 10.0111 9.96377 6.5 9.96377C2.98893 9.96377 3 9.09215 3 6.47645Z" stroke="white" stroke-width="1.5" stroke-linecap="round" stroke-linejoin="round"/>
<path fill-rule="evenodd" clip-rule="evenodd" d="M14 6.47645C14 3.86075 14.0281 2.98913 17.5 2.98913C20.9719 2.98913 21 3.86075 21 6.47645C21 9.09215 21.0111 9.96377 17.5 9.96377C13.9889 9.96377 14 9.09215 14 6.47645Z" stroke="white" stroke-width="1.5" stroke-linecap="round" stroke-linejoin="round"/>
<path fill-rule="evenodd" clip-rule="evenodd" d="M3 17.4366C3 14.8209 3.02811 13.9493 6.5 13.9493C9.97189 13.9493 10 14.8209 10 17.4366C10 20.0523 10.0111 20.9239 6.5 20.9239C2.98893 20.9239 3 20.0523 3 17.4366Z" stroke="white" stroke-width="1.5" stroke-linecap="round" stroke-linejoin="round"/>
<path fill-rule="evenodd" clip-rule="evenodd" d="M14 17.4366C14 14.8209 14.0281 13.9493 17.5 13.9493C20.9719 13.9493 21 14.8209 21 17.4366C21 20.0523 21.0111 20.9239 17.5 20.9239C13.9889 20.9239 14 20.0523 14 17.4366Z" stroke="white" stroke-width="1.5" stroke-linecap="round" stroke-linejoin="round"/>
</svg>
