<svg width="60" height="60" viewBox="0 0 60 60" fill="none" xmlns="http://www.w3.org/2000/svg">
<g clip-path="url(#clip0_1206_12207)">
<path d="M25.0156 26.8456H28.9756V28.8259H25.0156V26.8456Z" fill="#E52628"/>
<path d="M58.817 23.8855L52.0919 22.9251C50.8657 22.1718 49.5931 21.4974 48.281 20.9056C43.9481 18.943 39.2453 17.9302 34.4881 17.9355H33.3198C27.7058 17.9395 22.1816 19.3482 17.2508 22.0332L13.8568 23.8847C9.884 23.9294 5.98769 24.986 2.53613 26.9535C1.13342 27.758 0.26731 29.2505 0.264893 30.8671V36.7458C0.264893 37.2929 0.708021 37.736 1.25508 37.736H4.57935C5.66058 40.8206 9.03762 42.4449 12.1222 41.3636C13.8202 40.7686 15.1548 39.4336 15.7498 37.736H42.2005C43.2818 40.8206 46.6588 42.4449 49.7434 41.3636C51.441 40.7686 52.776 39.4336 53.371 37.736H53.7263C53.8524 37.736 53.9773 37.7123 54.0945 37.6655L57.3011 36.3789C58.7336 35.8117 59.6719 34.4251 59.6666 32.885V24.8656C59.6666 24.3733 59.3045 23.9556 58.817 23.8855ZM14.045 36.5481C13.6071 38.6908 11.5151 40.0729 9.37238 39.635C7.22926 39.1972 5.8471 37.1052 6.28499 34.9621C6.72328 32.8193 8.81525 31.4372 10.958 31.8751C12.8018 32.2517 14.1255 33.874 14.1251 35.7561C14.1251 36.0219 14.0981 36.2874 14.045 36.5481ZM31.9457 35.7561H16.1051C16.1051 32.4753 13.4459 29.8157 10.1652 29.8157C6.88442 29.8157 4.22485 32.4753 4.22485 35.7561H2.24487V30.8671C2.24608 29.9603 2.73191 29.1228 3.51906 28.6725C6.74987 26.8278 10.4053 25.857 14.1251 25.8558H31.9457V35.7561ZM31.9457 23.8758H18.0081L18.1991 23.7715C22.4318 21.4712 27.1334 20.1672 31.9457 19.9589V23.8758ZM33.9257 19.9154H34.4861C38.4758 19.911 42.4293 20.6684 46.1351 22.1472L44.4065 23.8758H33.9257V19.9154ZM51.6661 36.5481C51.2283 38.6908 49.1363 40.0729 46.9932 39.635C44.8504 39.1972 43.4683 37.1052 43.9062 34.9621C44.3441 32.8193 46.4364 31.4372 48.5792 31.8751C50.423 32.2517 51.7467 33.874 51.7463 35.7561C51.7463 36.0219 51.7193 36.2874 51.6661 36.5481ZM57.6866 26.8456H54.7165V28.8259H57.6866V32.885C57.6891 33.6145 57.2443 34.2712 56.5659 34.5391L53.7263 35.6795C53.7263 35.5885 53.7146 35.4982 53.7086 35.4072C53.7025 35.3162 53.7005 35.2094 53.6908 35.1103C53.6808 35.0112 53.661 34.9121 53.6453 34.8134C53.6292 34.7143 53.6175 34.6152 53.5978 34.5254C53.578 34.4351 53.549 34.3352 53.5233 34.241C53.4975 34.1471 53.4777 34.052 53.4479 33.9598C53.4185 33.8679 53.3827 33.7797 53.3492 33.6895C53.3154 33.5996 53.2848 33.5066 53.2501 33.4171C53.2155 33.3281 53.1688 33.2471 53.1273 33.163C53.0858 33.0788 53.0451 32.9865 52.9988 32.9015C52.952 32.8165 52.8997 32.744 52.8549 32.665C52.8106 32.5857 52.7562 32.4954 52.6998 32.4145C52.643 32.3331 52.5907 32.269 52.5363 32.1957C52.4819 32.1224 52.4203 32.0362 52.357 31.9601C52.2938 31.8839 52.2346 31.8243 52.1729 31.7619C52.1117 31.6998 52.0432 31.6156 51.9751 31.5463C51.9066 31.4771 51.8394 31.4223 51.7713 31.361C51.7028 31.2998 51.6295 31.2273 51.5542 31.1628C51.4792 31.0988 51.4027 31.0492 51.3278 30.9928C51.2524 30.9364 51.1771 30.876 51.0981 30.8232C51.0188 30.7709 50.9297 30.7245 50.8447 30.669C50.7593 30.6134 50.6901 30.5698 50.6099 30.5276C50.5297 30.4848 50.4298 30.4401 50.3388 30.3966C50.2477 30.3531 50.1764 30.3144 50.0922 30.279C50.008 30.2431 49.894 30.2057 49.7953 30.1702C49.6962 30.1344 49.6318 30.1066 49.5476 30.08C49.4348 30.0453 49.3192 30.0204 49.204 29.9918C49.1286 29.974 49.0565 29.9503 48.9804 29.9346C48.8587 29.9096 48.7338 29.8959 48.6102 29.8778C48.5369 29.8681 48.4668 29.852 48.3934 29.8451C48.1952 29.8254 47.9974 29.8145 47.7896 29.8145C44.51 29.8177 41.8525 32.4753 41.8492 35.7549H33.9261V25.8554H44.8162C45.0788 25.8554 45.3306 25.751 45.5159 25.5653L48.0833 22.998C49.1609 23.5108 50.2087 24.0841 51.2218 24.7149C51.3386 24.7878 51.4692 24.8358 51.6057 24.8555L57.6866 25.7236V26.8456Z" fill="#E52628"/>
</g>
<defs>
<clipPath id="clip0_1206_12207">
<rect width="59.3976" height="59.3976" fill="white" transform="translate(0.36792 0.097168)"/>
</clipPath>
</defs>
</svg>
