<svg width="24" height="25" viewBox="0 0 24 25" fill="none" xmlns="http://www.w3.org/2000/svg">
<path d="M20.557 6.33367L18.0609 3.83992C17.7562 3.53523 17.3484 3.36414 16.9172 3.36414C16.4859 3.36414 16.0781 3.53289 15.7734 3.83992L13.0852 6.52351C12.7805 6.8282 12.6094 7.23835 12.6094 7.6696C12.6094 8.1032 12.7781 8.50867 13.0852 8.8157L15.1852 10.918C14.7068 12.0327 14.0194 13.0455 13.1602 13.9016C12.3 14.7665 11.2945 15.4485 10.1789 15.9313L8.07891 13.829C7.77422 13.5243 7.36641 13.3532 6.93516 13.3532C6.72244 13.3524 6.51172 13.3941 6.31532 13.4758C6.11892 13.5575 5.9408 13.6776 5.79141 13.829L3.10078 16.5126C2.79609 16.8173 2.625 17.2274 2.625 17.6587C2.625 18.0923 2.79375 18.4977 3.10078 18.8048L5.59453 21.2985C6.11484 21.8188 6.83203 22.1165 7.56797 22.1165C7.72031 22.1165 7.86797 22.1048 8.01797 22.079C11.1211 21.568 14.2008 19.9157 16.6875 17.4313C19.1719 14.9423 20.8219 11.8626 21.3375 8.7571C21.4852 7.87585 21.1898 6.96882 20.557 6.33367ZM19.6758 8.4782C19.2188 11.2415 17.7328 13.9977 15.4945 16.236C13.2562 18.4743 10.5023 19.9602 7.73906 20.4173C7.39219 20.4759 7.03594 20.3587 6.78281 20.1079L4.33359 17.6587L6.93047 15.0594L9.73828 17.8719L9.75937 17.893L10.2656 17.7055C11.8006 17.1412 13.1945 16.2498 14.3508 15.0932C15.507 13.9365 16.3979 12.5423 16.9617 11.0071L17.1492 10.5009L14.318 7.67195L16.9148 5.07273L19.3641 7.52195C19.6172 7.77507 19.7344 8.13132 19.6758 8.4782Z" fill="white"/>
</svg>
