<svg width="24" height="25" viewBox="0 0 24 25" fill="none" xmlns="http://www.w3.org/2000/svg">
<g clip-path="url(#clip0_1206_12178)">
<path d="M9.95898 11.6339H11.559V12.4341H9.95898V11.6339Z" fill="white"/>
<path d="M23.6166 10.4379L20.8993 10.0499C20.4038 9.74547 19.8896 9.47299 19.3595 9.23388C17.6087 8.44085 15.7085 8.03164 13.7864 8.03376H13.3143C11.0459 8.03539 8.81384 8.6046 6.82152 9.68947L5.45017 10.4376C3.84491 10.4556 2.27059 10.8826 0.875959 11.6776C0.309188 12.0026 -0.0407714 12.6057 -0.041748 13.2589V15.6342C-0.041748 15.8553 0.137301 16.0343 0.358345 16.0343H1.70154C2.13842 17.2807 3.50293 17.937 4.74927 17.5001C5.43536 17.2597 5.97462 16.7202 6.21503 16.0343H16.9026C17.3395 17.2807 18.704 17.937 19.9504 17.5001C20.6363 17.2597 21.1757 16.7202 21.4161 16.0343H21.5597C21.6106 16.0343 21.6611 16.0247 21.7085 16.0058L23.0041 15.4859C23.5829 15.2568 23.962 14.6965 23.9599 14.0742V10.8339C23.9599 10.635 23.8136 10.4662 23.6166 10.4379ZM5.52618 15.5543C5.34925 16.4201 4.50398 16.9786 3.63819 16.8016C2.77225 16.6247 2.21378 15.7794 2.39071 14.9135C2.56781 14.0477 3.41308 13.4892 4.27886 13.6661C5.02387 13.8183 5.55874 14.4738 5.55857 15.2343C5.55857 15.3417 5.54767 15.449 5.52618 15.5543ZM12.7591 15.2343H6.3586C6.3586 13.9087 5.28414 12.8341 3.95853 12.8341C2.63292 12.8341 1.5583 13.9087 1.5583 15.2343H0.758275V13.2589C0.758763 12.8925 0.955066 12.5541 1.27312 12.3721C2.57855 11.6268 4.05554 11.2345 5.55857 11.234H12.7591V15.2343ZM12.7591 10.434H7.12753L7.20468 10.3918C8.91492 9.46241 10.8146 8.93552 12.7591 8.85136V10.434ZM13.5591 8.83378H13.7855C15.3976 8.83199 16.9951 9.138 18.4924 9.73554L17.794 10.434H13.5591V8.83378ZM20.7273 15.5543C20.5503 16.4201 19.7051 16.9786 18.8391 16.8016C17.9733 16.6247 17.4149 15.7794 17.5918 14.9135C17.7687 14.0477 18.6142 13.4892 19.4799 13.6661C20.225 13.8183 20.7598 14.4738 20.7597 15.2343C20.7597 15.3417 20.7488 15.449 20.7273 15.5543ZM23.1599 11.6339H21.9598V12.4341H23.1599V14.0742C23.1609 14.369 22.9812 14.6343 22.7071 14.7426L21.5597 15.2034C21.5597 15.1666 21.555 15.1301 21.5525 15.0933C21.5501 15.0565 21.5493 15.0134 21.5454 14.9734C21.5413 14.9333 21.5333 14.8933 21.527 14.8534C21.5205 14.8134 21.5157 14.7733 21.5078 14.737C21.4998 14.7006 21.4881 14.6602 21.4776 14.6221C21.4672 14.5842 21.4592 14.5458 21.4472 14.5085C21.4353 14.4714 21.4208 14.4357 21.4073 14.3993C21.3937 14.363 21.3813 14.3254 21.3673 14.2892C21.3533 14.2533 21.3344 14.2205 21.3176 14.1865C21.3009 14.1525 21.2844 14.1152 21.2657 14.0809C21.2468 14.0465 21.2257 14.0172 21.2076 13.9853C21.1897 13.9533 21.1677 13.9168 21.1449 13.8841C21.122 13.8512 21.1008 13.8253 21.0789 13.7957C21.0569 13.7661 21.032 13.7313 21.0064 13.7005C20.9809 13.6697 20.9569 13.6456 20.932 13.6204C20.9073 13.5953 20.8796 13.5613 20.8521 13.5333C20.8244 13.5053 20.7973 13.4832 20.7697 13.4585C20.7421 13.4337 20.7125 13.4044 20.682 13.3784C20.6517 13.3525 20.6208 13.3325 20.5905 13.3097C20.5601 13.2869 20.5297 13.2625 20.4978 13.2412C20.4657 13.22 20.4297 13.2013 20.3954 13.1788C20.3609 13.1563 20.3329 13.1388 20.3005 13.1217C20.2681 13.1044 20.2277 13.0864 20.1909 13.0688C20.1541 13.0512 20.1253 13.0356 20.0913 13.0212C20.0573 13.0068 20.0112 12.9916 19.9714 12.9773C19.9313 12.9628 19.9053 12.9516 19.8712 12.9408C19.8257 12.9268 19.779 12.9167 19.7324 12.9052C19.702 12.898 19.6728 12.8884 19.6421 12.8821C19.5929 12.872 19.5424 12.8665 19.4925 12.8591C19.4629 12.8552 19.4345 12.8487 19.4049 12.8459C19.3248 12.838 19.2449 12.8336 19.1609 12.8336C17.8358 12.8349 16.762 13.9087 16.7607 15.2338H13.5593V11.2339H17.9595C18.0656 11.2339 18.1674 11.1917 18.2422 11.1167L19.2796 10.0793C19.715 10.2865 20.1384 10.5181 20.5477 10.773C20.5949 10.8025 20.6477 10.8219 20.7028 10.8299L23.1599 11.1806V11.6339Z" fill="white"/>
</g>
<defs>
<clipPath id="clip0_1206_12178">
<rect width="24" height="24" fill="white" transform="translate(0 0.82608)"/>
</clipPath>
</defs>
</svg>
