<svg width="24" height="25" viewBox="0 0 24 25" fill="none" xmlns="http://www.w3.org/2000/svg">
<path d="M17.8877 11.7703C19.2827 11.575 20.3567 10.3833 20.3597 8.93956C20.3597 7.51673 19.3187 6.33702 17.9537 6.11383" stroke="white" stroke-width="1.5" stroke-linecap="round" stroke-linejoin="round"/>
<path d="M19.7285 15.1117C21.0795 15.313 22.0225 15.7843 22.0225 16.7557C22.0225 17.4243 21.5785 17.8587 20.8605 18.1317" stroke="white" stroke-width="1.5" stroke-linecap="round" stroke-linejoin="round"/>
<path fill-rule="evenodd" clip-rule="evenodd" d="M11.8867 15.5237C8.67273 15.5237 5.92773 16.0089 5.92773 17.9469C5.92773 19.8839 8.65573 20.383 11.8867 20.383C15.1007 20.383 17.8447 19.9028 17.8447 17.9638C17.8447 16.0249 15.1177 15.5237 11.8867 15.5237Z" stroke="white" stroke-width="1.5" stroke-linecap="round" stroke-linejoin="round"/>
<path fill-rule="evenodd" clip-rule="evenodd" d="M11.8869 12.7579C13.9959 12.7579 15.7059 11.0551 15.7059 8.95271C15.7059 6.85135 13.9959 5.14754 11.8869 5.14754C9.7779 5.14754 8.0679 6.85135 8.0679 8.95271C8.0599 11.0471 9.7569 12.7509 11.8589 12.7579H11.8869Z" stroke="white" stroke-width="1.5" stroke-linecap="round" stroke-linejoin="round"/>
<path d="M5.88484 11.7703C4.48884 11.575 3.41584 10.3833 3.41284 8.93956C3.41284 7.51673 4.45384 6.33702 5.81884 6.11383" stroke="white" stroke-width="1.5" stroke-linecap="round" stroke-linejoin="round"/>
<path d="M4.044 15.1117C2.693 15.313 1.75 15.7843 1.75 16.7557C1.75 17.4243 2.194 17.8587 2.912 18.1317" stroke="white" stroke-width="1.5" stroke-linecap="round" stroke-linejoin="round"/>
</svg>
