<svg width="50" height="50" viewBox="0 0 50 50" fill="none" xmlns="http://www.w3.org/2000/svg">
<circle cx="25" cy="25" r="25" fill="#fafafa"/>
<path fill-rule="evenodd" clip-rule="evenodd" d="M13.9138 29.6615C15.771 34.1455 20.1464 37.0692 24.9998 37.0694C28.184 37.0779 31.2394 35.8122 33.4848 33.5544C36.5575 30.5313 37.7727 26.0925 36.6684 21.9259C35.5641 17.7593 32.3098 14.5051 28.1432 13.4008C23.9766 12.2965 19.5378 13.5117 16.5148 16.5844C13.083 20.0164 12.0565 25.1776 13.9138 29.6615ZM18.281 23.9731C18.4223 23.834 18.6128 23.7563 18.811 23.7571C19.0087 23.7555 19.199 23.8316 19.341 23.9691L22.625 27.2031L29.659 20.2851C29.9542 19.9974 30.4249 19.9974 30.72 20.2851L31.78 21.3261C31.9202 21.4634 31.9992 21.6514 31.9992 21.8476C31.9992 22.0438 31.9202 22.2318 31.78 22.3691L23.155 30.8531C22.8599 31.1408 22.3892 31.1408 22.094 30.8531L17.22 26.0591C17.0794 25.9221 17 25.734 17 25.5376C17 25.3412 17.0794 25.1532 17.22 25.0161L18.281 23.9731Z" fill="#e52628"/>
</svg>
