<svg width="241" height="110" viewBox="0 0 241 110" fill="none" xmlns="http://www.w3.org/2000/svg">
<g clip-path="url(#clip0_1206_7352)">
<path d="M24.4503 78.1162C24.9569 78.1162 25.2102 78.3698 25.2102 78.877V82.1662C25.2102 82.6745 24.9569 82.9286 24.4503 82.9286H7.12396C6.45559 82.9286 5.98323 83.1012 5.70688 83.4465C5.43053 83.7918 5.29182 84.2652 5.29075 84.8668V86.0506C5.29075 87.3437 5.89058 87.9871 7.09022 87.9807H20.0576C22.0627 87.9807 23.573 88.4943 24.5884 89.5215C25.6038 90.5488 26.111 92.0189 26.1099 93.9318V96.7015C26.1099 98.3871 25.614 99.7489 24.6222 100.787C23.6303 101.825 22.0858 102.344 19.9885 102.345H0.830647C0.29884 102.345 0.0353467 102.091 0.0353467 101.583V98.2987C0.0353467 97.792 0.29884 97.5379 0.83868 97.5379H18.994C19.6624 97.5379 20.1347 97.3647 20.4111 97.0184C20.6874 96.672 20.8256 96.1986 20.8256 95.5981V94.1795C20.8256 92.8863 20.2263 92.243 19.0278 92.2494H6.05231C4.04505 92.2494 2.53478 91.7358 1.52151 90.7085C0.508242 89.6813 0.00107111 88.2069 0 86.2854V83.7586C0 82.0697 0.495389 80.7079 1.48617 79.6732C2.47694 78.6384 4.02202 78.1194 6.1214 78.1162H24.4503Z" fill="white"/>
<path d="M47.7581 83.3436C49.0718 83.3195 50.3836 83.4529 51.6655 83.7409C52.7259 84.0079 53.5732 84.4234 54.2073 84.9874C54.8543 85.5748 55.3269 86.3295 55.5729 87.1684C55.8698 88.2092 56.0096 89.2886 55.9875 90.3708V95.3569C56.0097 96.4391 55.87 97.5185 55.5729 98.5593C55.3269 99.3982 54.8543 100.153 54.2073 100.74C53.5732 101.304 52.7259 101.714 51.6655 101.969C50.382 102.246 49.0709 102.374 47.7581 102.35H34.7891V109.239C34.7891 109.746 34.5353 110 34.0275 110H30.6391C30.1089 110 29.8438 109.746 29.8438 109.239V90.3708C29.8225 89.2913 29.9622 88.2147 30.2583 87.1765C30.505 86.3374 30.9781 85.5827 31.6256 84.9954C32.2586 84.4314 33.1 84.0159 34.1497 83.7489C35.1993 83.4819 36.5088 83.3468 38.078 83.3436H47.7581ZM34.7891 98.1958H47.2729C47.9003 98.209 48.5272 98.1507 49.1415 98.0221C49.5795 97.9309 49.9819 97.7147 50.2999 97.3996C50.6031 97.0685 50.8117 96.6618 50.904 96.2222C51.0315 95.6191 51.0898 95.0034 51.0775 94.387V91.3053C51.0879 90.6948 51.0297 90.0852 50.904 89.4878C50.8171 89.0467 50.6077 88.6392 50.2999 88.312C49.9765 88.0039 49.5765 87.7883 49.1415 87.6879C48.5289 87.5473 47.9012 87.4835 47.2729 87.4981H38.56C37.9434 87.4846 37.3275 87.5483 36.7267 87.6879C36.2917 87.7883 35.8917 88.0039 35.5683 88.312C35.2605 88.6392 35.0511 89.0467 34.9642 89.4878C34.8385 90.0852 34.7803 90.6948 34.7907 91.3053L34.7891 98.1958Z" fill="white"/>
<path d="M77.7739 83.3436C79.0875 83.3194 80.3993 83.4528 81.6813 83.7409C82.7417 84.0079 83.5889 84.4234 84.223 84.9874C84.8723 85.5765 85.3456 86.3342 85.5903 87.1765C85.8872 88.2173 86.0269 89.2967 86.0048 90.3788V95.365C86.027 96.4471 85.8873 97.5266 85.5903 98.5673C85.3442 99.4067 84.871 100.162 84.223 100.748C83.59 101.312 82.7428 101.722 81.6813 101.977C80.3978 102.254 79.0867 102.382 77.7739 102.358H67.9877C66.4196 102.358 65.1112 102.231 64.0626 101.977C63.014 101.723 62.1715 101.311 61.5353 100.74C60.8878 100.153 60.4147 99.3984 60.168 98.5593C59.871 97.5185 59.7313 96.4391 59.7535 95.3569V90.3708C59.7333 89.2912 59.8741 88.2145 60.1712 87.1765C60.4157 86.3349 60.8878 85.5773 61.5353 84.9874C62.1683 84.4234 63.0097 84.0079 64.0594 83.7409C65.1091 83.4739 66.4174 83.3415 67.9845 83.3436H77.7739ZM64.702 94.4916C64.6898 95.1074 64.748 95.7226 64.8756 96.3252C64.9646 96.7607 65.1739 97.1625 65.4797 97.4849C65.803 97.793 66.2031 98.0085 66.6381 98.1089C67.2388 98.2485 67.8547 98.3123 68.4713 98.2987H77.2903C77.9178 98.315 78.545 98.2529 79.1572 98.1138C79.5925 98.0141 79.9928 97.7985 80.3156 97.4897C80.6225 97.1679 80.8324 96.7659 80.9213 96.33C81.0489 95.7274 81.1071 95.1122 81.0949 94.4964V91.1975C81.1062 90.5929 81.048 89.989 80.9213 89.3977C80.8299 88.9575 80.6205 88.5505 80.3156 88.2203C79.9987 87.9035 79.596 87.6866 79.1572 87.5963C78.5433 87.4691 77.9171 87.4113 77.2903 87.4242H68.4713C67.8557 87.4124 67.2407 87.4701 66.6381 87.5963C66.1996 87.6874 65.7971 87.9042 65.4797 88.2203C65.1759 88.551 64.9671 88.9579 64.8756 89.3977C64.7489 89.989 64.6907 90.5929 64.702 91.1975V94.4916Z" fill="white"/>
<path d="M91.8836 83.3436V78.7741C91.8836 78.2659 92.1369 78.0117 92.6436 78.0117H96.0674C96.5751 78.0117 96.8289 78.2659 96.8289 78.7741V83.3436H102.881C103.296 83.3436 103.503 83.5511 103.503 83.9661V86.805C103.503 87.221 103.296 87.429 102.881 87.429H96.8289V95.4599C96.8289 96.4249 97.0249 97.1348 97.417 97.5894C97.809 98.0441 98.5813 98.2693 99.7338 98.265H103.089C103.503 98.265 103.71 98.4725 103.71 98.8874V101.726C103.71 102.141 103.503 102.35 103.089 102.35H98.9112C97.5273 102.35 96.386 102.223 95.4874 101.969C94.6731 101.763 93.9276 101.345 93.3264 100.758C92.7611 100.16 92.3719 99.4166 92.2017 98.6108C91.977 97.576 91.8724 96.5187 91.89 95.4599V87.429H88.598C88.1835 87.429 87.9762 87.221 87.9762 86.805V83.9597C87.9762 83.5447 88.1835 83.3372 88.598 83.3372L91.8836 83.3436Z" fill="white"/>
<path d="M142.235 78.1162C142.74 78.1162 142.994 78.3698 142.995 78.877V82.1662C142.995 82.6745 142.742 82.9286 142.235 82.9286H124.909C124.24 82.9286 123.768 83.1012 123.492 83.4465C123.215 83.7918 123.075 84.2652 123.071 84.8668V86.0506C123.071 87.3437 123.67 87.9871 124.87 87.9807H137.837C139.843 87.9807 141.353 88.4943 142.368 89.5215C143.384 90.5488 143.892 92.0189 143.895 93.9318V96.7015C143.895 98.3872 143.399 99.749 142.407 100.787C141.415 101.825 139.87 102.344 137.773 102.345H118.615C118.084 102.345 117.82 102.091 117.82 101.583V98.2987C117.82 97.792 118.084 97.5379 118.615 97.5379H136.771C137.439 97.5379 137.911 97.3647 138.188 97.0184C138.464 96.672 138.602 96.1986 138.602 95.5981V94.1795C138.602 92.8863 138.003 92.243 136.804 92.2494H123.837C121.83 92.2494 120.319 91.7358 119.306 90.7086C118.293 89.6813 117.786 88.2096 117.785 86.2934V83.7586C117.785 82.074 118.281 80.7122 119.272 79.6732C120.264 78.6341 121.809 78.1151 123.906 78.1162H142.235Z" fill="white"/>
<path d="M150.672 83.3435C151.088 83.3435 151.351 83.5285 151.475 83.8968L155.937 98.1265C155.961 98.1984 156.008 98.2606 156.07 98.304C156.132 98.3474 156.206 98.3697 156.282 98.3678H156.42C156.627 98.3678 156.743 98.2874 156.767 98.1265L161.435 85.005C161.664 84.382 161.935 83.9493 162.248 83.707C162.559 83.4641 163.025 83.3435 163.649 83.3435H167.763C168.386 83.3435 168.853 83.4647 169.164 83.707C169.476 83.9493 169.747 84.382 169.977 85.005L174.611 98.1265C174.633 98.2874 174.749 98.3678 174.956 98.3678H175.095C175.17 98.3697 175.245 98.3474 175.307 98.304C175.369 98.2606 175.416 98.1984 175.44 98.1265L179.939 83.8968C180.009 83.5285 180.273 83.3435 180.742 83.3435H184.649C184.948 83.3435 185.131 83.4191 185.22 83.5687C185.303 83.7612 185.309 83.9781 185.237 84.1751L179.963 100.205C179.686 101.083 179.358 101.66 178.978 101.935C178.598 102.211 178.038 102.35 177.3 102.352H172.943C172.344 102.352 171.881 102.191 171.56 101.884C171.239 101.577 170.917 101.012 170.625 100.205L166.062 87.5688C166.042 87.5036 166 87.4472 165.943 87.4094C165.886 87.3716 165.818 87.3546 165.75 87.3614H165.541C165.358 87.3614 165.254 87.4305 165.231 87.5688L160.7 100.205C160.402 101.012 160.09 101.572 159.767 101.884C159.443 102.196 158.982 102.352 158.384 102.352H154.026C153.289 102.352 152.73 102.213 152.349 101.935C151.968 101.658 151.639 101.081 151.364 100.205L146.176 84.1767C146.106 83.9807 146.106 83.7663 146.176 83.5703C146.245 83.4207 146.441 83.3451 146.764 83.3451L150.672 83.3435Z" fill="white"/>
<path d="M203.028 83.3436C204.342 83.3194 205.655 83.4528 206.937 83.7409C207.997 84.0079 208.845 84.4234 209.479 84.9874C210.126 85.5748 210.598 86.3295 210.844 87.1684C211.141 88.2092 211.281 89.2886 211.259 90.3708V99.5806C211.268 100.039 211.227 100.498 211.138 100.948C211.079 101.263 210.936 101.556 210.724 101.795C210.512 102.012 210.241 102.163 209.945 102.228C209.536 102.319 209.118 102.36 208.7 102.35H192.239C191.382 102.37 190.527 102.271 189.697 102.056C189.087 101.898 188.524 101.595 188.055 101.173C187.627 100.756 187.322 100.229 187.173 99.6498C186.988 98.926 186.9 98.1805 186.913 97.4334V95.7719C186.903 95.1191 186.991 94.4685 187.173 93.8418C187.337 93.2938 187.641 92.7985 188.055 92.4054C188.524 91.9835 189.087 91.6806 189.697 91.5224C190.527 91.3078 191.382 91.2087 192.239 91.2281H206.314V90.5702C206.323 90.0916 206.265 89.6141 206.142 89.1516C206.041 88.7842 205.837 88.4535 205.554 88.1994C205.223 87.9304 204.831 87.7461 204.413 87.6622C203.798 87.535 203.172 87.4773 202.544 87.4901H188.084C187.67 87.4901 187.463 87.2821 187.463 86.866V83.9596C187.463 83.5446 187.67 83.3372 188.084 83.3372L203.028 83.3436ZM205.311 98.5416C205.681 98.5416 205.939 98.4547 206.09 98.2826C206.241 98.1105 206.314 97.8001 206.314 97.3642V94.3179H193.658C192.943 94.3179 192.442 94.4621 192.152 94.7505C191.865 95.04 191.72 95.4598 191.72 96.0147V96.7417C191.72 97.3642 191.865 97.821 192.152 98.1089C192.44 98.3968 192.943 98.5416 193.658 98.5416H205.311Z" fill="white"/>
<path d="M232.769 83.3436C234.083 83.3195 235.395 83.4529 236.677 83.7409C237.737 84.0079 238.584 84.4234 239.218 84.9874C239.866 85.5743 240.338 86.3292 240.584 87.1684C240.882 88.209 241.022 89.2885 241 90.3708V95.3569C241.023 96.4392 240.882 97.5188 240.584 98.5593C240.338 99.3985 239.866 100.153 239.218 100.74C238.585 101.304 237.738 101.714 236.677 101.969C235.393 102.246 234.082 102.374 232.769 102.35H219.802V109.239C219.802 109.746 219.548 110 219.04 110H215.652C215.12 110 214.848 109.746 214.848 109.239V90.3708C214.826 89.2886 214.966 88.2092 215.263 87.1684C215.508 86.3292 215.981 85.5743 216.629 84.9874C217.263 84.4234 218.104 84.0079 219.153 83.7409C220.201 83.4739 221.51 83.3414 223.079 83.3436H232.769ZM219.802 98.1958H232.285C232.912 98.209 233.539 98.1507 234.152 98.0221C234.591 97.9312 234.993 97.715 235.311 97.3996C235.615 97.069 235.824 96.6622 235.917 96.2222C236.043 95.6189 236.1 95.0033 236.088 94.387V91.3053C236.099 90.6949 236.041 90.0854 235.917 89.4878C235.83 89.0464 235.62 88.6387 235.311 88.312C234.988 88.0035 234.588 87.788 234.152 87.6879C233.54 87.5472 232.913 87.4835 232.285 87.4981H223.571C222.954 87.4845 222.338 87.5482 221.738 87.6879C221.303 87.788 220.902 88.0035 220.579 88.312C220.27 88.6387 220.06 89.0464 219.974 89.4878C219.848 90.0852 219.791 90.6949 219.802 91.3053V98.1958Z" fill="white"/>
<path d="M159.553 0H79.4577C78.3929 0 77.5297 0.864138 77.5297 1.93011V63.6646C77.5297 64.7305 78.3929 65.5947 79.4577 65.5947H159.553C160.618 65.5947 161.481 64.7305 161.481 63.6646V1.93011C161.481 0.864138 160.618 0 159.553 0Z" fill="#E52628"/>
<path d="M151.602 16.9496L145.699 13.6218C145.596 13.5645 145.481 13.5316 145.363 13.5256C145.245 13.5197 145.127 13.5408 145.019 13.5873C144.91 13.6339 144.814 13.7047 144.737 13.7943C144.66 13.8839 144.604 13.9899 144.574 14.1043L144.219 15.4602H108.209C105.587 15.4602 103.228 16.8274 102.043 19.0325L98.0628 26.4586C97.5503 27.4065 97.2945 28.4722 97.3207 29.5498C97.3469 30.6274 97.6543 31.6793 98.2123 32.6012C99.4237 34.6278 101.702 35.892 104.17 35.9081H134.986C135.492 35.9081 135.803 36.1333 135.926 36.3375C135.957 36.3806 135.974 36.4328 135.974 36.4863C135.974 36.5398 135.957 36.592 135.926 36.6351L131.951 44.0612C131.832 44.2815 131.469 44.5067 131.003 44.5067H96.2746L96.596 43.2537C96.6358 43.1045 96.6301 42.9468 96.5794 42.8008C96.5288 42.6549 96.4356 42.5276 96.3119 42.4353C96.1882 42.3429 96.0396 42.2899 95.8855 42.283C95.7313 42.2761 95.5787 42.3156 95.4472 42.3965L87.3817 47.3086C87.2666 47.379 87.1718 47.4783 87.1067 47.5966C87.0417 47.715 87.0087 47.8483 87.011 47.9833C87.0132 48.1184 87.0507 48.2505 87.1197 48.3666C87.1887 48.4827 87.2868 48.5787 87.4042 48.6452L93.3071 51.973C93.4103 52.0306 93.5254 52.0638 93.6434 52.0699C93.7614 52.076 93.8793 52.055 93.9879 52.0084C94.0965 51.9618 94.193 51.8909 94.27 51.8011C94.3469 51.7113 94.4023 51.605 94.4318 51.4905L94.7113 50.4305H131.011C133.631 50.4305 135.991 49.0634 137.177 46.8582L141.152 39.4321C141.666 38.4849 141.922 37.4196 141.897 36.3421C141.871 35.2647 141.564 34.2128 141.006 33.2912C139.798 31.263 137.516 29.9939 135.05 29.9778H104.229C103.728 29.9778 103.416 29.7559 103.293 29.5468C103.26 29.5056 103.241 29.455 103.239 29.4023C103.237 29.3496 103.252 29.2976 103.281 29.254L107.261 21.8263C107.38 21.6044 107.743 21.384 108.209 21.384H142.661L142.41 22.3491C142.37 22.4983 142.376 22.6561 142.427 22.802C142.477 22.9479 142.57 23.0753 142.694 23.1676C142.818 23.2599 142.966 23.313 143.121 23.3199C143.275 23.3268 143.427 23.2872 143.559 23.2064L151.624 18.2943C151.741 18.2244 151.838 18.1248 151.904 18.0056C151.971 17.8864 152.004 17.7518 152.002 17.6154C152 17.479 151.961 17.3456 151.891 17.2287C151.821 17.1118 151.721 17.0155 151.602 16.9496Z" fill="white"/>
</g>
<defs>
<clipPath id="clip0_1206_7352">
<rect width="241" height="110" fill="white"/>
</clipPath>
</defs>
</svg>
