<svg width="24" height="24" viewBox="0 0 24 24" fill="none" xmlns="http://www.w3.org/2000/svg">
<path fill-rule="evenodd" clip-rule="evenodd" d="M12.2466 22.0001C10.8916 22.0001 9.5706 21.9852 8.2636 21.9581C6.5916 21.9251 5.4346 20.8411 5.2456 19.1291C4.9306 16.2891 4.3916 9.59515 4.3866 9.52815C4.3526 9.11515 4.6606 8.75315 5.0736 8.72015C5.4806 8.70915 5.8486 8.99515 5.8816 9.40715C5.8866 9.47515 6.4246 16.1461 6.7366 18.9641C6.8436 19.9371 7.3686 20.4391 8.2946 20.4581C10.7946 20.5112 13.3456 20.5141 16.0956 20.4641C17.0796 20.4451 17.6116 19.9531 17.7216 18.9571C18.0316 16.1631 18.5716 9.47515 18.5776 9.40715C18.6106 8.99515 18.9756 8.70715 19.3846 8.72015C19.7976 8.75415 20.1056 9.11515 20.0726 9.52815C20.0666 9.59615 19.5246 16.3071 19.2126 19.1221C19.0186 20.8691 17.8646 21.9321 16.1226 21.9641C14.7896 21.9871 13.5036 22.0001 12.2466 22.0001Z" fill="black"/>
<path fill-rule="evenodd" clip-rule="evenodd" d="M20.708 6.98926H3.75C3.336 6.98926 3 6.65326 3 6.23926C3 5.82526 3.336 5.48926 3.75 5.48926H20.708C21.122 5.48926 21.458 5.82526 21.458 6.23926C21.458 6.65326 21.122 6.98926 20.708 6.98926Z" fill="black"/>
<path fill-rule="evenodd" clip-rule="evenodd" d="M17.4403 6.98949C16.3023 6.98949 15.3143 6.17849 15.0903 5.06249L14.8473 3.84649C14.7963 3.66149 14.5853 3.50049 14.3453 3.50049H10.1123C9.87233 3.50049 9.66133 3.66149 9.60033 3.89249L9.36733 5.06249C9.14433 6.17849 8.15533 6.98949 7.01733 6.98949C6.60333 6.98949 6.26733 6.65349 6.26733 6.23949C6.26733 5.82549 6.60333 5.48949 7.01733 5.48949C7.44333 5.48949 7.81333 5.18549 7.89733 4.76749L8.14033 3.55149C8.38733 2.61949 9.19433 2.00049 10.1123 2.00049H14.3453C15.2633 2.00049 16.0703 2.61949 16.3073 3.50649L16.5613 4.76749C16.6443 5.18549 17.0143 5.48949 17.4403 5.48949C17.8543 5.48949 18.1903 5.82549 18.1903 6.23949C18.1903 6.65349 17.8543 6.98949 17.4403 6.98949Z" fill="black"/>
</svg>
