<svg width="47" height="48" viewBox="0 0 47 48" fill="none" xmlns="http://www.w3.org/2000/svg">
<path d="M35.625 33.8672H34.6641V20.2539C34.6641 14.6044 30.488 9.93584 25.0547 9.15908V7.60156C25.0547 6.7167 24.338 6 23.4531 6C22.5683 6 21.8516 6.7167 21.8516 7.60156V9.15908C16.4183 9.93584 12.2422 14.6044 12.2422 20.2539V33.8672H11.2812C10.5726 33.8672 10 34.4397 10 35.1484V36.4297C10 36.6059 10.1441 36.75 10.3203 36.75H18.9688C18.9688 39.2244 20.9787 41.2344 23.4531 41.2344C25.9275 41.2344 27.9375 39.2244 27.9375 36.75H36.5859C36.7621 36.75 36.9062 36.6059 36.9062 36.4297V35.1484C36.9062 34.4397 36.3337 33.8672 35.625 33.8672ZM23.4531 38.6719C22.3921 38.6719 21.5312 37.811 21.5312 36.75H25.375C25.375 37.811 24.5142 38.6719 23.4531 38.6719ZM15.125 33.8672V20.2539C15.125 18.0277 15.9898 15.9377 17.5634 14.3642C19.1369 12.7906 21.227 11.9258 23.4531 11.9258C25.6793 11.9258 27.7693 12.7906 29.3429 14.3642C30.9164 15.9377 31.7812 18.0277 31.7812 20.2539V33.8672H15.125Z" fill="#262626"/>
</svg>
