<svg width="41" height="37" viewBox="0 0 41 37" fill="none" xmlns="http://www.w3.org/2000/svg">
<path opacity="0.5" d="M4.47554 32.6025C-0.746789 27.3802 -0.770923 18.9091 4.42174 13.7164L17.6043 0.533875C18.2986 -0.16038 19.4255 -0.155787 20.1223 0.541048C20.8194 1.23811 20.824 2.36501 20.1297 3.05927L6.94713 16.2418C3.14045 20.0485 3.157 26.2619 6.98659 30.0915C10.8162 33.921 17.0295 33.9376 20.8362 30.1309L34.6466 16.3205C37.0696 13.8975 37.0583 9.94418 34.6215 7.50734C32.1844 5.07027 28.2311 5.059 25.8081 7.482L13.2531 20.037C12.2149 21.0751 12.2195 22.7699 13.2638 23.8142C14.3082 24.8585 16.0029 24.8631 17.0411 23.825L28.9682 11.8978C29.6625 11.2035 30.7894 11.2081 31.4862 11.905C32.1833 12.602 32.1879 13.7289 31.4936 14.4232L19.5664 26.3503C17.1435 28.7733 13.1899 28.7618 10.753 26.325C8.31619 23.8882 8.3047 19.9346 10.7277 17.5116L23.2827 4.95661C27.0891 1.15016 33.3027 1.16648 37.1325 4.9963C40.9621 8.82588 40.9784 15.0395 37.172 18.8459L23.3616 32.6563C18.1689 37.849 9.69788 37.8248 4.47554 32.6025Z" fill="#9E9E9E"/>
</svg>
