<svg width="36" height="33" viewBox="0 0 36 33" fill="none" xmlns="http://www.w3.org/2000/svg">
<g opacity="0.5">
<path d="M12.3992 7.29297C9.58567 7.29297 7.29834 9.5803 7.29834 12.3938C7.29834 15.2073 9.58567 17.4946 12.3992 17.4946C15.2126 17.4946 17.5 15.2073 17.5 12.3938C17.5 9.5803 15.2126 7.29297 12.3992 7.29297ZM12.3992 14.5861C11.1934 14.5861 10.2141 13.6069 10.2141 12.4011C10.2141 11.1953 11.1934 10.2161 12.3992 10.2161C13.6049 10.2161 14.5842 11.1953 14.5842 12.4011C14.5915 13.5996 13.6049 14.5861 12.3992 14.5861Z" fill="#9DA09F"/>
<path d="M30.6324 0.000976562H5.10643C2.29294 0.000976562 0.00561523 2.28831 0.00561523 5.10179V26.9739C0.00561523 29.7947 2.29294 32.082 5.10643 32.082H30.6251C33.4386 32.082 35.7259 29.7947 35.7259 26.9812V5.10179C35.7332 2.28831 33.4459 0.000976562 30.6324 0.000976562ZM32.6128 27.902C32.2547 28.6693 31.4728 29.1662 30.6251 29.1662H13.715L22.3674 18.5846C22.7839 18.1681 23.332 17.9415 23.9166 17.9415C24.5012 17.9415 25.0493 18.1681 25.4658 18.5846L25.4951 18.6138L32.7078 27.6974L32.6128 27.902ZM32.8174 23.8973L27.4974 16.5019C26.5328 15.5519 25.2612 15.0257 23.9093 15.0257C22.55 15.0257 21.2712 15.5519 20.3139 16.5092L9.49839 29.1662H5.11374C3.90796 29.1662 2.92872 28.187 2.92872 26.9812V5.10179C2.92872 3.89601 3.90796 2.91677 5.11374 2.91677H30.6324C31.8382 2.91677 32.8174 3.89601 32.8174 5.10179V23.8973Z" fill="#9DA09F"/>
</g>
</svg>
