<svg width="50" height="50" viewBox="0 0 50 50" fill="none" xmlns="http://www.w3.org/2000/svg">
<path d="M24.8816 32.1369C24.9179 32.1833 24.9642 32.2207 25.0171 32.2465C25.07 32.2723 25.1281 32.2857 25.1869 32.2857C25.2457 32.2857 25.3038 32.2723 25.3567 32.2465C25.4096 32.2207 25.4559 32.1833 25.4922 32.1369L30.9197 25.2701C31.1184 25.0181 30.9391 24.645 30.6144 24.645H27.0235V8.246C27.0235 8.03278 26.8491 7.85832 26.6359 7.85832H23.7282C23.515 7.85832 23.3406 8.03278 23.3406 8.246V24.6401H19.7593C19.4347 24.6401 19.2554 25.0133 19.454 25.2653L24.8816 32.1369ZM42.9234 30.4408H40.0157C39.8025 30.4408 39.6281 30.6153 39.6281 30.8285V38.2914H10.7457V30.8285C10.7457 30.6153 10.5713 30.4408 10.358 30.4408H7.45043C7.2372 30.4408 7.06274 30.6153 7.06274 30.8285V40.4236C7.06274 41.2814 7.75573 41.9744 8.61347 41.9744H41.7603C42.6181 41.9744 43.311 41.2814 43.311 40.4236V30.8285C43.311 30.6153 43.1366 30.4408 42.9234 30.4408Z" fill="#E52628"/>
</svg>
