<svg width="56" height="56" viewBox="0 0 56 56" fill="none" xmlns="http://www.w3.org/2000/svg">
<path d="M44.668 38.1156C43.3263 36.7729 41.7587 35.677 40.0369 34.8781C42.465 32.911 44.014 29.9094 44.014 26.5433C44.014 20.6044 39.0614 15.7322 33.1225 15.8233C27.2748 15.9144 22.5633 20.6795 22.5633 26.5433C22.5633 29.9094 24.1177 32.911 26.5404 34.8781C24.8183 35.6764 23.2506 36.7723 21.9094 38.1156C18.9828 41.0475 17.3212 44.9174 17.214 49.0446C17.2126 49.1018 17.2226 49.1587 17.2435 49.212C17.2645 49.2653 17.2958 49.3138 17.3358 49.3548C17.3757 49.3957 17.4235 49.4283 17.4762 49.4505C17.529 49.4727 17.5856 49.4841 17.6428 49.4841H20.6444C20.8749 49.4841 21.0679 49.3019 21.0732 49.0714C21.1751 45.9626 22.4347 43.0521 24.6484 40.8438C25.7811 39.705 27.1285 38.8022 28.6126 38.1876C30.0966 37.573 31.6878 37.2588 33.294 37.2633C36.5583 37.2633 39.6296 38.5336 41.9397 40.8438C44.148 43.0521 45.4076 45.9626 45.5148 49.0714C45.5202 49.3019 45.7132 49.4841 45.9436 49.4841H48.9452C49.0025 49.4841 49.0591 49.4727 49.1119 49.4505C49.1646 49.4283 49.2123 49.3957 49.2523 49.3548C49.2923 49.3138 49.3236 49.2653 49.3445 49.212C49.3654 49.1587 49.3755 49.1018 49.374 49.0446C49.2668 44.9174 47.6052 41.0475 44.668 38.1156ZM33.294 33.4041C31.4609 33.4041 29.735 32.6912 28.4432 31.3941C27.795 30.7509 27.2829 29.9838 26.9375 29.1384C26.5922 28.293 26.4207 27.3867 26.4332 26.4736C26.4493 24.7155 27.1515 23.0164 28.3789 21.7568C29.6653 20.4383 31.3859 19.7039 33.2244 19.6825C35.0414 19.6664 36.8048 20.3739 38.102 21.6443C39.4312 22.9467 40.1602 24.6887 40.1602 26.5433C40.1602 28.3764 39.4473 30.097 38.1502 31.3941C37.5138 32.0335 36.757 32.5404 35.9234 32.8854C35.0899 33.2304 34.1962 33.4067 33.294 33.4041ZM19.8672 27.9583C19.819 27.492 19.7922 27.0203 19.7922 26.5433C19.7922 25.6911 19.8726 24.8603 20.0227 24.0509C20.0602 23.8579 19.9584 23.6596 19.7815 23.5792C19.0525 23.2523 18.3825 22.802 17.8036 22.2339C17.1215 21.5725 16.5848 20.7762 16.2276 19.8957C15.8705 19.0153 15.7007 18.0701 15.7293 17.1204C15.7776 15.3999 16.469 13.7651 17.675 12.5323C18.9989 11.1762 20.7784 10.4365 22.6705 10.4579C24.3804 10.474 26.0312 11.1333 27.2801 12.3018C27.7036 12.6984 28.068 13.1379 28.3736 13.6096C28.4808 13.7758 28.6898 13.8455 28.872 13.7811C29.8154 13.4542 30.8124 13.2237 31.8361 13.1165C32.1363 13.0843 32.3078 12.7627 32.1738 12.4947C30.4318 9.04826 26.8728 6.66842 22.7563 6.6041C16.812 6.51298 11.8594 11.3852 11.8594 17.3187C11.8594 20.6848 13.4084 23.6864 15.8365 25.6535C14.132 26.4415 12.5616 27.5295 11.2001 28.891C8.26283 31.8229 6.60123 35.6928 6.49403 39.8254C6.4926 39.8826 6.50263 39.9395 6.52354 39.9928C6.54445 40.0461 6.57581 40.0946 6.61577 40.1356C6.65573 40.1765 6.70349 40.2091 6.75622 40.2313C6.80896 40.2535 6.86561 40.2649 6.92283 40.2649H9.92979C10.1603 40.2649 10.3532 40.0827 10.3586 39.8522C10.4604 36.7434 11.72 33.8329 13.9337 31.6246C15.5096 30.0487 17.4392 28.9553 19.5456 28.4247C19.7547 28.3711 19.894 28.1728 19.8672 27.9583Z" fill="#E52628"/>
</svg>
