<svg width="63" height="49" viewBox="0 0 63 49" fill="none" xmlns="http://www.w3.org/2000/svg">
<path d="M61.5532 0H1.44683C0.64777 0 0 0.645521 0 1.44181V47.5582C0 48.3545 0.64777 49 1.44683 49H61.5532C62.3522 49 63 48.3545 63 47.5582V1.44181C63 0.645521 62.3522 0 61.5532 0Z" fill="#E52628"/>
<path d="M55.6982 12.5767L51.2477 10.0731C51.1699 10.03 51.0832 10.0052 50.9943 10.0007C50.9054 9.99625 50.8166 10.0121 50.7348 10.0472C50.653 10.0822 50.5802 10.1354 50.5222 10.2029C50.4641 10.2703 50.4223 10.35 50.3998 10.4361L50.1321 11.4562H22.9823C21.0053 11.4562 19.2271 12.4848 18.3331 14.1438L15.3326 19.7308C14.9462 20.4439 14.7533 21.2457 14.7731 22.0564C14.7928 22.8671 15.0246 23.6585 15.4453 24.3521C16.3586 25.8768 18.0763 26.8279 19.9369 26.84H43.1705C43.5521 26.84 43.7871 27.0094 43.8791 27.1631C43.903 27.1955 43.9159 27.2347 43.9159 27.275C43.9159 27.3153 43.903 27.3545 43.8791 27.387L40.8823 32.9739C40.7926 33.1397 40.5189 33.3091 40.1676 33.3091H13.9844L14.2267 32.3665C14.2567 32.2542 14.2524 32.1355 14.2142 32.0257C14.176 31.9159 14.1058 31.8201 14.0125 31.7507C13.9192 31.6812 13.8072 31.6413 13.691 31.6361C13.5748 31.6309 13.4597 31.6606 13.3606 31.7215L7.27961 35.4171C7.19279 35.47 7.12132 35.5447 7.07229 35.6338C7.02326 35.7228 6.99837 35.8231 7.00008 35.9247C7.0018 36.0263 7.03006 36.1257 7.08206 36.2131C7.13407 36.3004 7.20801 36.3727 7.29658 36.4227L11.747 38.9263C11.8249 38.9697 11.9116 38.9946 12.0006 38.9992C12.0896 39.0038 12.1784 38.988 12.2603 38.9529C12.3422 38.9179 12.415 38.8645 12.473 38.797C12.531 38.7294 12.5727 38.6495 12.595 38.5633L12.8058 37.7659H40.1736C42.1493 37.7659 43.9288 36.7373 44.8228 35.0782L47.8196 29.4913C48.2068 28.7787 48.4003 27.9771 48.381 27.1666C48.3616 26.356 48.1301 25.5646 47.7094 24.8712C46.7985 23.3453 45.0784 22.3905 43.219 22.3784H19.9818C19.6038 22.3784 19.3688 22.2114 19.2755 22.0541C19.2507 22.0232 19.2365 21.985 19.2349 21.9454C19.2334 21.9057 19.2447 21.8667 19.2671 21.8339L22.2676 16.2457C22.3572 16.0787 22.631 15.9129 22.9823 15.9129H48.9571L48.7681 16.639C48.7381 16.7513 48.7424 16.87 48.7806 16.9797C48.8188 17.0895 48.889 17.1853 48.9823 17.2548C49.0756 17.3242 49.1876 17.3641 49.3038 17.3693C49.42 17.3746 49.5351 17.3448 49.6342 17.284L55.7152 13.5884C55.8034 13.5358 55.8762 13.4609 55.9262 13.3712C55.9762 13.2815 56.0016 13.1803 55.9999 13.0776C55.9982 12.975 55.9694 12.8747 55.9164 12.7867C55.8635 12.6988 55.7882 12.6263 55.6982 12.5767Z" fill="white"/>
</svg>
